Coordinates
version=1
nRows=6
nColumns=36
inDegrees=yes

Units are S.I. units (second, meters, Newtons, ...)
If the header above contains a line with 'inDegrees', this indicates whether rotational values are in degrees (yes) or radians (no).

endheader
time	pelvis_tilt	pelvis_list	pelvis_rotation	pelvis_tx	pelvis_ty	pelvis_tz	hip_flexion_r	hip_adduction_r	hip_rotation_r	knee_angle_r	knee_angle_r_beta	ankle_angle_r	subtalar_angle_r	mtp_angle_r	hip_flexion_l	hip_adduction_l	hip_rotation_l	knee_angle_l	knee_angle_l_beta	ankle_angle_l	subtalar_angle_l	mtp_angle_l	lumbar_extension	lumbar_bending	lumbar_rotation	arm_flex_r	arm_add_r	arm_rot_r	elbow_flex_r	pro_sup_r	arm_flex_l	arm_add_l	arm_rot_l	elbow_flex_l	pro_sup_l
      0.00000000	      0.18348182	     -2.94477126	      3.03626920	      0.79300277	      0.97315153	     -0.29897447	     29.62473876	      3.36327728	      1.52884554	     15.50258231	      0.27057110	     -4.33968391	    -14.18967212	     -6.55113588	     -2.79462964	      2.62022529	      9.89384014	      5.64768664	      0.09857073	     11.16381102	     -6.34477211	     -6.55113588	     -7.69185630	     -0.24378949	     -4.11679409	     39.22158862	      3.39876575	     53.75101772	    126.75152451	     82.42767756	     31.15719078	     -3.08321651	     64.87853279	    126.26071654	     92.43546307
      0.01666670	      1.67760428	     -3.49711664	      3.09050037	      0.79796665	      0.97053100	     -0.30265130	     27.47394188	      3.97197064	      1.53231415	     12.08688080	      0.21095587	     -3.33099677	     -9.77905086	     -6.67896907	     -3.96804765	      2.13170995	      9.04694004	      7.71914784	      0.13472455	     12.28003488	     -7.41859467	     -6.67896907	    -10.64054858	      0.41158990	     -1.64985561	     42.16175834	      0.02921906	     61.65407684	    135.14219363	     97.40256789	     32.65908878	     -2.80999963	     62.89186256	    129.80832684	    103.31601803
      0.03333330	      0.82770088	     -3.14712237	      2.70845765	      0.79846428	      0.96915196	     -0.30072581	     27.29848078	      3.77568989	      1.35364559	      8.13440862	      0.14197221	     -3.04943777	     -7.97822082	     -6.90002177	     -3.07210540	      2.61718661	      8.54832445	      8.20160524	      0.14314502	     13.72150176	     -7.61411593	     -6.90002177	     -9.09143102	      0.12294736	     -2.58718801	     41.90581575	      2.53926544	     60.58455877	    134.30984415	    100.43371136	     31.42459792	     -3.78645935	     61.26793221	    130.96794839	    106.83326809
      0.05000000	      1.03709575	     -3.44240073	      2.74379192	      0.79138934	      0.96858993	     -0.29740778	     27.24967912	      4.07853587	      0.81491237	      7.78484898	      0.13587125	     -1.13603623	     -6.11235809	     -6.94948247	     -2.62481692	      2.31486387	      8.51595430	      9.11092503	      0.15901564	     15.74436012	     -6.49539312	     -6.94948247	     -9.08865852	      0.51936928	     -3.19519474	     42.39769514	      3.66643629	     59.83883257	    132.74786821	    100.71015139	     31.94844525	     -4.07956995	     59.71173931	    131.03090997	    105.96336717
      0.06666670	      1.34080162	     -3.70584419	      2.34206100	      0.79707690	      0.96970861	     -0.30009992	     27.32358192	      4.55037303	      0.77263611	      8.84736837	      0.15441571	     -0.53018912	     -5.75203340	     -6.95373685	     -2.52461135	      2.17786059	      8.40177608	     10.05321069	      0.17546163	     17.18954631	     -6.80791215	     -6.95373685	     -9.35349473	      0.81246463	     -2.90219410	     42.35166722	      3.98758383	     59.69988030	    132.24409315	    100.71016947	     32.30587577	     -3.88216509	     59.03466953	    130.75004446	    105.77989931
      0.08333330	      1.29220188	     -3.76330127	      2.03840493	      0.79038651	      0.96977122	     -0.29674483	     28.44402093	      4.67776836	      0.11252039	     10.96096646	      0.19130495	     -0.39659432	     -4.58441643	     -6.97076076	     -1.85359780	      2.19599753	      7.96810481	     10.93364832	      0.19082816	     18.06187193	     -6.16401657	     -6.97076076	     -9.33619877	      0.88305089	     -2.92350471	     42.58505563	      4.59204077	     59.70022593	    131.29525484	    100.59517343	     32.68725759	     -3.56895651	     58.22681827	    130.56986631	    104.79138103
